<?xml version="1.0" encoding="utf-8"?>
<!-- Generator: Adobe Illustrator 21.1.0, SVG Export Plug-In . SVG Version: 6.00 Build 0)  -->
<svg version="1.1" id="Layer_1" xmlns="http://www.w3.org/2000/svg" xmlns:xlink="http://www.w3.org/1999/xlink" x="0px" y="0px"
	 viewBox="0 0 1024 568" style="enable-background:new 0 0 1024 568;" xml:space="preserve">
<g>
	<g>
		<rect x="0.5" y="0.5" style="fill:#E1EBF9;" width="1023" height="567"/>
		<path d="M1023,1v566H1V1H1023 M1024,0H0v568h1024V0L1024,0z"/>
	</g>
	<g>
		<path style="fill:#ADADAD;" d="M320.4,281.4c0-5-0.2-9-0.3-12.6h6.3l0.3,6.6h0.2c2.9-4.7,7.5-7.5,13.8-7.5
			c9.4,0,16.5,7.9,16.5,19.7c0,13.9-8.5,20.8-17.7,20.8c-5.1,0-9.6-2.2-12-6.1h-0.2v21h-7V281.4z M327.4,291.7c0,1,0.2,2,0.3,2.9
			c1.3,4.9,5.5,8.2,10.6,8.2c7.5,0,11.8-6.1,11.8-15c0-7.8-4.1-14.4-11.6-14.4c-4.8,0-9.3,3.4-10.7,8.7c-0.2,0.9-0.5,1.9-0.5,2.9
			V291.7z"/>
		<path style="fill:#ADADAD;" d="M366.1,250.7h7.1v56.8h-7.1V250.7z"/>
		<path style="fill:#ADADAD;" d="M406.6,307.5l-0.6-4.9h-0.2c-2.2,3-6.3,5.8-11.9,5.8c-7.9,0-11.9-5.5-11.9-11.1
			c0-9.4,8.3-14.5,23.4-14.4V282c0-3.2-0.9-9-8.8-9c-3.6,0-7.4,1.1-10.1,2.9l-1.6-4.6c3.2-2.1,7.9-3.4,12.8-3.4
			c11.9,0,14.8,8.1,14.8,15.8v14.5c0,3.4,0.2,6.6,0.6,9.3H406.6z M405.5,287.7c-7.7-0.2-16.5,1.2-16.5,8.7c0,4.6,3.1,6.7,6.7,6.7
			c5.1,0,8.3-3.2,9.4-6.5c0.2-0.7,0.4-1.5,0.4-2.2V287.7z"/>
		<path style="fill:#ADADAD;" d="M451.5,306c-1.8,1-5.9,2.2-11.2,2.2c-11.7,0-19.3-7.9-19.3-19.8c0-11.9,8.2-20.6,20.9-20.6
			c4.2,0,7.9,1,9.8,2l-1.6,5.4c-1.7-1-4.3-1.8-8.2-1.8c-8.9,0-13.7,6.6-13.7,14.6c0,9,5.8,14.5,13.5,14.5c4,0,6.7-1,8.7-1.9
			L451.5,306z"/>
		<path style="fill:#ADADAD;" d="M463.2,289.4c0.2,9.5,6.3,13.4,13.3,13.4c5.1,0,8.1-0.9,10.8-2l1.2,5c-2.5,1.1-6.7,2.4-12.9,2.4
			c-12,0-19.1-7.8-19.1-19.5c0-11.7,6.9-20.9,18.2-20.9c12.7,0,16.1,11.1,16.1,18.2c0,1.4-0.2,2.6-0.2,3.3H463.2z M483.9,284.4
			c0.1-4.5-1.8-11.4-9.8-11.4c-7.1,0-10.3,6.6-10.8,11.4H483.9z"/>
		<path style="fill:#ADADAD;" d="M499.5,250.7h7.1v24.2h0.2c1.1-2,2.9-3.8,5.1-5c2.1-1.2,4.6-2,7.2-2c5.2,0,13.6,3.2,13.6,16.6v23
			h-7.1v-22.2c0-6.2-2.3-11.5-9-11.5c-4.6,0-8.2,3.2-9.5,7c-0.4,1-0.5,2-0.5,3.4v23.4h-7.1V250.7z"/>
		<path style="fill:#ADADAD;" d="M579.2,287.8c0,14.3-10,20.6-19.3,20.6c-10.5,0-18.6-7.7-18.6-19.9c0-13,8.5-20.6,19.3-20.6
			C571.6,267.9,579.2,276,579.2,287.8z M548.3,288.2c0,8.5,4.9,14.9,11.8,14.9c6.7,0,11.8-6.3,11.8-15c0-6.6-3.3-14.9-11.6-14.9
			S548.3,280.8,548.3,288.2z"/>
		<path style="fill:#ADADAD;" d="M588.1,250.7h7.1v56.8h-7.1V250.7z"/>
		<path style="fill:#ADADAD;" d="M640.6,250.7v46.8c0,3.4,0.1,7.4,0.3,10h-6.3l-0.3-6.7h-0.2c-2.2,4.3-6.9,7.6-13.2,7.6
			c-9.4,0-16.6-7.9-16.6-19.7c-0.1-12.9,7.9-20.8,17.4-20.8c5.9,0,10,2.8,11.7,5.9h0.2v-23.1H640.6z M633.5,284.5
			c0-0.9-0.1-2.1-0.3-3c-1-4.5-4.9-8.2-10.2-8.2c-7.3,0-11.6,6.4-11.6,15c0,7.8,3.9,14.3,11.5,14.3c4.7,0,9.1-3.1,10.4-8.4
			c0.2-1,0.3-1.9,0.3-3V284.5z"/>
		<path style="fill:#ADADAD;" d="M656.2,289.4c0.2,9.5,6.3,13.4,13.3,13.4c5.1,0,8.1-0.9,10.8-2l1.2,5c-2.5,1.1-6.7,2.4-12.9,2.4
			c-12,0-19.1-7.8-19.1-19.5c0-11.7,6.9-20.9,18.2-20.9c12.7,0,16.1,11.1,16.1,18.2c0,1.4-0.2,2.6-0.2,3.3H656.2z M676.9,284.4
			c0.1-4.5-1.8-11.4-9.8-11.4c-7.1,0-10.3,6.6-10.8,11.4H676.9z"/>
		<path style="fill:#ADADAD;" d="M692.5,280.8c0-4.6-0.1-8.5-0.3-12.1h6.2l0.2,7.6h0.3c1.8-5.2,6-8.5,10.8-8.5c0.8,0,1.4,0.1,2,0.2
			v6.6c-0.7-0.2-1.4-0.2-2.4-0.2c-5,0-8.5,3.8-9.5,9c-0.2,1-0.3,2.1-0.3,3.3v20.6h-7V280.8z"/>
	</g>
</g>
</svg>
