<?xml version="1.0" encoding="utf-8"?>
<!-- Generator: Adobe Illustrator 21.1.0, SVG Export Plug-In . SVG Version: 6.00 Build 0)  -->
<svg version="1.1" id="Layer_1" xmlns="http://www.w3.org/2000/svg" xmlns:xlink="http://www.w3.org/1999/xlink" x="0px" y="0px"
	 viewBox="0 0 1024 568" style="enable-background:new 0 0 1024 568;" xml:space="preserve">
<style type="text/css">
	.st0{fill:#E1EBF9;}
	.st1{fill:#DBDBDB;}
</style>
<g>
	<g>
		<rect x="-4.5" y="-4.5" class="st0" width="1035" height="577"/>
		<path d="M1030-4v576H-4V-4H1030 M1031-5H-5v578h1036V-5L1031-5z"/>
	</g>
	<g>
		<path class="st1" d="M315.2,278.3c0-5.1-0.2-9.2-0.3-12.8h6.4l0.3,6.7h0.2c2.9-4.8,7.6-7.6,14-7.6c9.5,0,16.7,8,16.7,20
			c0,14.1-8.6,21.2-17.9,21.2c-5.2,0-9.7-2.2-12.1-6.2h-0.2v21.4h-7.1v-42.6H315.2z M322.3,288.8c0,1,0.2,2,0.3,3
			c1.3,5,5.6,8.3,10.7,8.3c7.6,0,11.9-6.2,11.9-15.3c0-7.9-4.1-14.7-11.7-14.7c-4.9,0-9.4,3.5-10.8,8.9c-0.2,0.9-0.5,1.9-0.5,3v6.8
			L322.3,288.8L322.3,288.8z"/>
		<path class="st1" d="M361.4,247.1h7.2v57.8h-7.2V247.1z"/>
		<path class="st1" d="M402.4,304.9l-0.6-5h-0.2c-2.2,3.1-6.4,5.9-12,5.9c-8,0-12-5.6-12-11.3c0-9.6,8.4-14.8,23.7-14.7v-0.9
			c0-3.3-0.9-9.2-8.9-9.2c-3.6,0-7.5,1.1-10.2,3l-1.6-4.7c3.2-2.1,8-3.5,12.9-3.5c12,0,15,8.2,15,16.1v14.8c0,3.5,0.2,6.7,0.6,9.5
			L402.4,304.9L402.4,304.9z M401.3,284.7c-7.8-0.2-16.7,1.2-16.7,8.9c0,4.7,3.1,6.8,6.8,6.8c5.2,0,8.4-3.3,9.5-6.6
			c0.2-0.7,0.4-1.5,0.4-2.2V284.7z"/>
		<path class="st1" d="M447.8,303.3c-1.8,1-6,2.2-11.3,2.2c-11.8,0-19.5-8-19.5-20.1s8.3-21,21.1-21c4.2,0,8,1,9.9,2l-1.6,5.5
			c-1.7-1-4.4-1.8-8.3-1.8c-9,0-13.9,6.7-13.9,14.9c0,9.2,5.9,14.8,13.7,14.8c4,0,6.8-1,8.8-1.9L447.8,303.3z"/>
		<path class="st1" d="M459.7,286.4c0.2,9.7,6.4,13.6,13.5,13.6c5.2,0,8.2-0.9,10.9-2l1.2,5.1c-2.5,1.1-6.8,2.4-13.1,2.4
			c-12.1,0-19.3-7.9-19.3-19.8c0-11.9,7-21.3,18.4-21.3c12.8,0,16.3,11.3,16.3,18.5c0,1.4-0.2,2.6-0.2,3.4h-27.7V286.4z
			 M480.6,281.4c0.1-4.6-1.8-11.6-9.9-11.6c-7.2,0-10.4,6.7-10.9,11.6H480.6z"/>
		<path class="st1" d="M496.4,247.1h7.2v24.6h0.2c1.1-2,2.9-3.9,5.2-5.1c2.1-1.2,4.7-2,7.3-2c5.3,0,13.8,3.3,13.8,16.9v23.4h-7.2
			v-22.6c0-6.3-2.3-11.7-9.1-11.7c-4.7,0-8.3,3.3-9.6,7.1c-0.4,1-0.5,2-0.5,3.5V305h-7.2V247.1L496.4,247.1z"/>
		<path class="st1" d="M577,284.8c0,14.6-10.1,21-19.5,21c-10.6,0-18.8-7.8-18.8-20.3c0-13.2,8.6-21,19.5-21
			C569.4,264.6,577,272.8,577,284.8z M545.8,285.2c0,8.6,5,15.2,11.9,15.2c6.8,0,11.9-6.4,11.9-15.3c0-6.7-3.3-15.2-11.7-15.2
			C549.5,270,545.8,277.7,545.8,285.2z"/>
		<path class="st1" d="M586,247.1h7.2v57.8H586V247.1z"/>
		<path class="st1" d="M639.2,247.1v47.6c0,3.5,0.1,7.5,0.3,10.2h-6.4l-0.3-6.8h-0.2c-2.2,4.4-7,7.7-13.4,7.7c-9.5,0-16.8-8-16.8-20
			c-0.1-13.1,8-21.2,17.6-21.2c6,0,10.1,2.8,11.8,6h0.2v-23.5L639.2,247.1L639.2,247.1z M632,281.5c0-0.9-0.1-2.1-0.3-3.1
			c-1-4.6-5-8.3-10.3-8.3c-7.4,0-11.7,6.5-11.7,15.3c0,7.9,3.9,14.6,11.6,14.6c4.8,0,9.2-3.2,10.5-8.5c0.2-1,0.3-1.9,0.3-3.1v-6.8
			L632,281.5L632,281.5z"/>
		<path class="st1" d="M654.9,286.4c0.2,9.7,6.4,13.6,13.5,13.6c5.2,0,8.2-0.9,10.9-2l1.2,5.1c-2.5,1.1-6.8,2.4-13.1,2.4
			c-12.1,0-19.3-7.9-19.3-19.8c0-11.9,7-21.3,18.4-21.3c12.8,0,16.3,11.3,16.3,18.5c0,1.4-0.2,2.6-0.2,3.4h-27.7L654.9,286.4
			L654.9,286.4z M675.9,281.4c0.1-4.6-1.8-11.6-9.9-11.6c-7.2,0-10.4,6.7-10.9,11.6H675.9z"/>
		<path class="st1" d="M691.7,277.7c0-4.7-0.1-8.6-0.3-12.3h6.3l0.2,7.7h0.3c1.8-5.3,6.1-8.6,10.9-8.6c0.8,0,1.4,0.1,2,0.2v6.7
			c-0.7-0.2-1.4-0.2-2.4-0.2c-5.1,0-8.6,3.9-9.6,9.2c-0.2,1-0.3,2.1-0.3,3.4v21h-7.1V277.7z"/>
	</g>
</g>
</svg>
